<?xml version="1.0" encoding="UTF-8"?><svg id="Layer_2" xmlns="http://www.w3.org/2000/svg" viewBox="0 0 300 300"><defs><style>.cls-1{fill:none;stroke:#1b1464;stroke-linecap:round;stroke-linejoin:round;stroke-width:10.01px;}</style></defs><path class="cls-1" d="M146.61,197.96l17.14,12.58,8.67,6.39c4.18,3.08,9.92,2.77,13.76-.68l.53-.49c4.94-4.45,4.75-12.28-.42-16.5"/><path class="cls-1" d="M161.28,178.72l25.01,20.53,5.21,4.26c2.01,1.67,4.49,2.47,6.92,2.47,2.77,0,5.51-1.03,7.6-3.08,4.64-4.52,4.33-12.09-.65-16.19"/><path class="cls-1" d="M176.26,162.53l29.12,24.18,6.99,5.78c4.11,3.42,10.15,3.31,14.18-.27l.57-.49c3.73-3.31,4.68-8.55,2.62-12.85-.38-.8-.84-1.56-1.44-2.28-9.77-11.71-29.54-33.64-53.75-51.17"/><path class="cls-1" d="M114.11,211.07s-.08-.04-.11-.04"/><path class="cls-1" d="M80.62,185.53l-.04-.04"/><path class="cls-1" d="M63.93,169.22c-8.44-8.9-16.95-19.01-25.43-30.45l53.86-56.56s20.79,10.99,43.68,21.67"/><path class="cls-1" d="M163.75,210.54c4.9,3.73,5.78,10.8,1.9,15.59l-.15,.23c-2.74,3.35-7.18,4.83-11.37,3.65-5.51-1.52-13.72-4.56-23.83-9.73"/><path class="cls-1" d="M229.74,178.88c11.86-9.12,23.26-19.42,35.01-40.1l-53.83-56.56s-20.22,6.58-51.24,9.24c-8.44,.68-16.61,5.93-23.64,12.43-7.6,6.96-13.87,15.32-17.79,21.06-1.1,1.63-1.67,3.5-1.67,5.36,0,2.47,.99,4.94,2.89,6.8,3,2.93,7.6,3.54,11.29,1.48l15.05-8.4c4.41-2.47,9.35-3.88,14.44-4.11l14.29-.65"/><path class="cls-1" d="M95.21,173.52l-9.09,7.45-5.55,4.52-3.99,3.31-.08,.08c-3.84,3.08-9.5,2.51-12.62-1.33l-3.34-4.03c-3.38-4.07-2.55-10.15,1.79-13.19l1.6-1.1,18.21-12.66c3.95-2.77,9.35-1.94,12.32,1.86l2.05,2.66c2.97,3.8,2.36,9.28-1.29,12.43Z"/><path class="cls-1" d="M115.59,181.57l-7.79,7.37s-.08,.04-.12,.08l-10.68,10.07v.04l-6.35,5.97-.04,.04c-3.88,3.61-10,3.19-13.3-.95l-2.13-2.7c-3.08-3.88-2.51-9.5,1.33-12.62l.08-.08,4.03-3.27,5.51-4.56,9.09-7.45,7.68-6.35c3.73-3.08,9.2-2.66,12.47,.91l.72,.84c3.31,3.65,3.12,9.28-.5,12.66Z"/><path class="cls-1" d="M121.52,201.91l-7.53,9.12-7.34,8.89c-3.27,3.95-9.16,4.41-13,1.03l-2.81-2.51c-3.99-3.54-4.07-9.66-.23-13.3l.04-.04,6.35-5.97v-.04l10.68-10.07s.08-.08,.12-.08c3.34-3.08,8.44-3.19,11.94-.23l.65,.53c3.76,3.19,4.3,8.86,1.14,12.66Z"/><path class="cls-1" d="M132.2,217.53l-1.9,2.74-7.45,10.72c-2.77,3.95-8.17,5.06-12.28,2.47l-1.18-.76c-4.64-2.93-5.63-9.24-2.13-13.42l6.84-8.21,3.73-4.49c3.12-3.76,8.63-4.33,12.47-1.37,3.8,2.93,4.64,8.36,1.9,12.32Z"/></svg>