<?xml version="1.0" encoding="UTF-8"?><svg id="Layer_2" xmlns="http://www.w3.org/2000/svg" viewBox="0 0 300 300"><defs><style>.cls-1{fill:none;stroke:#003279;stroke-miterlimit:10;stroke-width:11.31px;}</style></defs><g><path class="cls-1" d="M121.07,216.41c-14.33,0-25.94-11.68-25.94-26.08h0l.15-53.14c0-28.82,23.24-52.19,51.9-52.19s51.9,23.36,51.9,52.19v18.21l.15,34.93h10.67c5.24,0,9.5-4.28,9.5-9.55v-23.68c0-5.27-4.25-9.55-9.5-9.55h-10.67"/><path class="cls-1" d="M95.13,190.33h-10.67c-5.24,0-9.5-4.28-9.5-9.55v-23.68c0-5.27,4.25-9.55,9.5-9.55h10.67"/><rect class="cls-1" x="121.81" y="208.13" width="25.99" height="16.56" rx="8.26" ry="8.26" transform="translate(269.62 432.82) rotate(180)"/></g><path class="cls-1" d="M188.82,106.08l-7.22,5.76c-2.47,1.97-6.02,1.74-8.26-.51-6.63-6.67-15.81-10.8-25.96-10.8s-19.41,4.16-26.04,10.88c-2.19,2.22-5.69,2.48-8.17,.58l-7.69-5.91"/></svg>