<?xml version="1.0" encoding="UTF-8"?><svg id="Layer_2" xmlns="http://www.w3.org/2000/svg" viewBox="0 0 300 300"><defs><style>.cls-1{fill:none;stroke:#1b1464;stroke-linecap:round;stroke-linejoin:round;stroke-width:10.01px;}</style></defs><polygon class="cls-1" points="102.68 127.13 137.86 122.69 153.04 90.23 153.43 90.23 168.61 122.69 203.8 127.13 203.8 127.82 178.02 152.28 184.79 187.28 184.07 187.28 153.24 170.22 122.4 187.28 121.68 187.28 128.45 152.28 102.68 127.82 102.68 127.13"/><path class="cls-1" d="M215.28,63.91H91.19c-11.44,0-20.72,9.28-20.72,20.72v112.08c0,11.44,9.28,20.72,20.72,20.72h36.01l26.03,40.5,26.03-40.5h36.01c11.44,0,20.72-9.28,20.72-20.72V84.63c0-11.44-9.28-20.72-20.72-20.72Z"/></svg>